<?xml version="1.0" encoding="UTF-8" standalone="no"?>
<!DOCTYPE svg PUBLIC "-//W3C//DTD SVG 1.1//EN"
 "http://www.w3.org/Graphics/SVG/1.1/DTD/svg11.dtd">
<!-- Generated by graphviz version 2.47.0 (20210316.0004)
 -->
<!-- Title: dependencies Pages: 1 -->
<svg width="874pt" height="284pt"
 viewBox="0.00 0.00 874.00 284.00" xmlns="http://www.w3.org/2000/svg" xmlns:xlink="http://www.w3.org/1999/xlink">
<g id="graph0" class="graph" transform="scale(1 1) rotate(0) translate(4 280)">
<title>dependencies</title>
<polygon fill="white" stroke="transparent" points="-4,4 -4,-280 870,-280 870,4 -4,4"/>
<text text-anchor="start" x="412.01" y="-42.4" font-family="Times-12" font-weight="bold" font-size="14.00">Legend</text>
<polygon fill="#ffffb3" stroke="transparent" points="199,-10 199,-30 219,-30 219,-10 199,-10"/>
<text text-anchor="start" x="222.63" y="-15.4" font-family="Times-12" font-size="14.00"> &#160;Declarations</text>
<polygon fill="#8dd3c7" stroke="transparent" points="312,-10 312,-30 332,-30 332,-10 312,-10"/>
<text text-anchor="start" x="335.73" y="-15.4" font-family="Times-12" font-size="14.00"> &#160;Module</text>
<polygon fill="#80b1d3" stroke="transparent" points="398,-10 398,-30 418,-30 418,-10 398,-10"/>
<text text-anchor="start" x="421.78" y="-15.4" font-family="Times-12" font-size="14.00"> &#160;Bootstrap</text>
<polygon fill="#fdb462" stroke="transparent" points="495,-10 495,-30 515,-30 515,-10 495,-10"/>
<text text-anchor="start" x="518.67" y="-15.4" font-family="Times-12" font-size="14.00"> &#160;Providers</text>
<polygon fill="#fb8072" stroke="transparent" points="591,-10 591,-30 611,-30 611,-10 591,-10"/>
<text text-anchor="start" x="614.73" y="-15.4" font-family="Times-12" font-size="14.00"> &#160;Exports</text>
<g id="clust1" class="cluster">
<title>cluster_UsersModule</title>
<polygon fill="none" stroke="black" stroke-dasharray="1,5" points="8,-70 8,-268 858,-268 858,-70 8,-70"/>
</g>
<g id="clust6" class="cluster">
<title>cluster_UsersModule_providers</title>
<polygon fill="none" stroke="black" points="16,-78 16,-130 850,-130 850,-78 16,-78"/>
</g>
<g id="clust4" class="cluster">
<title>cluster_UsersModule_exports</title>
<polygon fill="none" stroke="black" points="348,-208 348,-260 458,-260 458,-208 348,-208"/>
</g>
<!-- UsersService  -->
<g id="node1" class="node">
<title>UsersService </title>
<polygon fill="#fb8072" stroke="black" points="449.85,-252 356.15,-252 356.15,-216 449.85,-216 449.85,-252"/>
<text text-anchor="middle" x="403" y="-229.8" font-family="Times,serif" font-size="14.00">UsersService </text>
</g>
<!-- UsersModule -->
<g id="node2" class="node">
<title>UsersModule</title>
<polygon fill="#8dd3c7" stroke="black" points="448.92,-187 445.92,-191 424.92,-191 421.92,-187 357.08,-187 357.08,-151 448.92,-151 448.92,-187"/>
<text text-anchor="middle" x="403" y="-164.8" font-family="Times,serif" font-size="14.00">UsersModule</text>
</g>
<!-- UsersModule&#45;&gt;UsersService  -->
<g id="edge1" class="edge">
<title>UsersModule&#45;&gt;UsersService </title>
<path fill="none" stroke="black" stroke-dasharray="5,2" d="M403,-187.11C403,-187.11 403,-205.99 403,-205.99"/>
<polygon fill="black" stroke="black" points="399.5,-205.99 403,-215.99 406.5,-205.99 399.5,-205.99"/>
</g>
<!-- CreateUserService -->
<g id="node3" class="node">
<title>CreateUserService</title>
<ellipse fill="#fdb462" stroke="black" cx="759" cy="-104" rx="83.34" ry="18"/>
<text text-anchor="middle" x="759" y="-99.8" font-family="Times,serif" font-size="14.00">CreateUserService</text>
</g>
<!-- CreateUserService&#45;&gt;UsersModule -->
<g id="edge2" class="edge">
<title>CreateUserService&#45;&gt;UsersModule</title>
<path fill="none" stroke="black" d="M759,-122.11C759,-141.34 759,-169 759,-169 759,-169 458.81,-169 458.81,-169"/>
<polygon fill="black" stroke="black" points="458.81,-165.5 448.81,-169 458.81,-172.5 458.81,-165.5"/>
</g>
<!-- FindOneUserByEmailService -->
<g id="node4" class="node">
<title>FindOneUserByEmailService</title>
<ellipse fill="#fdb462" stroke="black" cx="531" cy="-104" rx="126.2" ry="18"/>
<text text-anchor="middle" x="531" y="-99.8" font-family="Times,serif" font-size="14.00">FindOneUserByEmailService</text>
</g>
<!-- FindOneUserByEmailService&#45;&gt;UsersModule -->
<g id="edge3" class="edge">
<title>FindOneUserByEmailService&#45;&gt;UsersModule</title>
<path fill="none" stroke="black" d="M426.68,-114.16C426.68,-114.16 426.68,-140.81 426.68,-140.81"/>
<polygon fill="black" stroke="black" points="423.18,-140.81 426.68,-150.81 430.18,-140.81 423.18,-140.81"/>
</g>
<!-- UserCreateManyProvider -->
<g id="node5" class="node">
<title>UserCreateManyProvider</title>
<ellipse fill="#fdb462" stroke="black" cx="276" cy="-104" rx="110.49" ry="18"/>
<text text-anchor="middle" x="276" y="-99.8" font-family="Times,serif" font-size="14.00">UserCreateManyProvider</text>
</g>
<!-- UserCreateManyProvider&#45;&gt;UsersModule -->
<g id="edge4" class="edge">
<title>UserCreateManyProvider&#45;&gt;UsersModule</title>
<path fill="none" stroke="black" d="M371.77,-113.04C371.77,-113.04 371.77,-140.96 371.77,-140.96"/>
<polygon fill="black" stroke="black" points="368.27,-140.96 371.77,-150.96 375.27,-140.96 368.27,-140.96"/>
</g>
<!-- UsersService -->
<g id="node6" class="node">
<title>UsersService</title>
<ellipse fill="#fdb462" stroke="black" cx="86" cy="-104" rx="61.95" ry="18"/>
<text text-anchor="middle" x="86" y="-99.8" font-family="Times,serif" font-size="14.00">UsersService</text>
</g>
<!-- UsersService&#45;&gt;UsersModule -->
<g id="edge5" class="edge">
<title>UsersService&#45;&gt;UsersModule</title>
<path fill="none" stroke="black" d="M86,-122.11C86,-141.34 86,-169 86,-169 86,-169 347.24,-169 347.24,-169"/>
<polygon fill="black" stroke="black" points="347.24,-172.5 357.24,-169 347.24,-165.5 347.24,-172.5"/>
</g>
</g>
</svg>
