<?xml version="1.0" encoding="UTF-8" standalone="no"?>
<!DOCTYPE svg PUBLIC "-//W3C//DTD SVG 1.1//EN"
 "http://www.w3.org/Graphics/SVG/1.1/DTD/svg11.dtd">
<!-- Generated by graphviz version 2.47.0 (20210316.0004)
 -->
<!-- Title: dependencies Pages: 1 -->
<svg width="915pt" height="284pt"
 viewBox="0.00 0.00 915.00 284.00" xmlns="http://www.w3.org/2000/svg" xmlns:xlink="http://www.w3.org/1999/xlink">
<g id="graph0" class="graph" transform="scale(1 1) rotate(0) translate(4 280)">
<title>dependencies</title>
<polygon fill="white" stroke="transparent" points="-4,4 -4,-280 911,-280 911,4 -4,4"/>
<text text-anchor="start" x="432.51" y="-42.4" font-family="Times-12" font-weight="bold" font-size="14.00">Legend</text>
<polygon fill="#ffffb3" stroke="transparent" points="219.5,-10 219.5,-30 239.5,-30 239.5,-10 219.5,-10"/>
<text text-anchor="start" x="243.13" y="-15.4" font-family="Times-12" font-size="14.00"> &#160;Declarations</text>
<polygon fill="#8dd3c7" stroke="transparent" points="332.5,-10 332.5,-30 352.5,-30 352.5,-10 332.5,-10"/>
<text text-anchor="start" x="356.23" y="-15.4" font-family="Times-12" font-size="14.00"> &#160;Module</text>
<polygon fill="#80b1d3" stroke="transparent" points="418.5,-10 418.5,-30 438.5,-30 438.5,-10 418.5,-10"/>
<text text-anchor="start" x="442.28" y="-15.4" font-family="Times-12" font-size="14.00"> &#160;Bootstrap</text>
<polygon fill="#fdb462" stroke="transparent" points="515.5,-10 515.5,-30 535.5,-30 535.5,-10 515.5,-10"/>
<text text-anchor="start" x="539.17" y="-15.4" font-family="Times-12" font-size="14.00"> &#160;Providers</text>
<polygon fill="#fb8072" stroke="transparent" points="611.5,-10 611.5,-30 631.5,-30 631.5,-10 611.5,-10"/>
<text text-anchor="start" x="635.23" y="-15.4" font-family="Times-12" font-size="14.00"> &#160;Exports</text>
<g id="clust1" class="cluster">
<title>cluster_AuthModule</title>
<polygon fill="none" stroke="black" stroke-dasharray="1,5" points="8,-70 8,-268 899,-268 899,-70 8,-70"/>
</g>
<g id="clust4" class="cluster">
<title>cluster_AuthModule_exports</title>
<polygon fill="none" stroke="black" points="372,-208 372,-260 604,-260 604,-208 372,-208"/>
</g>
<g id="clust6" class="cluster">
<title>cluster_AuthModule_providers</title>
<polygon fill="none" stroke="black" points="16,-78 16,-130 891,-130 891,-78 16,-78"/>
</g>
<!-- AuthService  -->
<g id="node1" class="node">
<title>AuthService </title>
<polygon fill="#fb8072" stroke="black" points="595.98,-252 506.02,-252 506.02,-216 595.98,-216 595.98,-252"/>
<text text-anchor="middle" x="551" y="-229.8" font-family="Times,serif" font-size="14.00">AuthService </text>
</g>
<!-- HashingService  -->
<g id="node2" class="node">
<title>HashingService </title>
<polygon fill="#fb8072" stroke="black" points="488.13,-252 379.87,-252 379.87,-216 488.13,-216 488.13,-252"/>
<text text-anchor="middle" x="434" y="-229.8" font-family="Times,serif" font-size="14.00">HashingService </text>
</g>
<!-- AuthModule -->
<g id="node3" class="node">
<title>AuthModule</title>
<polygon fill="#8dd3c7" stroke="black" points="535.55,-187 532.55,-191 511.55,-191 508.55,-187 448.45,-187 448.45,-151 535.55,-151 535.55,-187"/>
<text text-anchor="middle" x="492" y="-164.8" font-family="Times,serif" font-size="14.00">AuthModule</text>
</g>
<!-- AuthModule&#45;&gt;AuthService  -->
<g id="edge1" class="edge">
<title>AuthModule&#45;&gt;AuthService </title>
<path fill="none" stroke="black" stroke-dasharray="5,2" d="M521.02,-187.11C521.02,-187.11 521.02,-205.99 521.02,-205.99"/>
<polygon fill="black" stroke="black" points="517.52,-205.99 521.02,-215.99 524.52,-205.99 517.52,-205.99"/>
</g>
<!-- AuthModule&#45;&gt;HashingService  -->
<g id="edge2" class="edge">
<title>AuthModule&#45;&gt;HashingService </title>
<path fill="none" stroke="black" stroke-dasharray="5,2" d="M468.15,-187.11C468.15,-187.11 468.15,-205.99 468.15,-205.99"/>
<polygon fill="black" stroke="black" points="464.65,-205.99 468.15,-215.99 471.65,-205.99 464.65,-205.99"/>
</g>
<!-- AuthService -->
<g id="node4" class="node">
<title>AuthService</title>
<ellipse fill="#fdb462" stroke="black" cx="824" cy="-104" rx="59.11" ry="18"/>
<text text-anchor="middle" x="824" y="-99.8" font-family="Times,serif" font-size="14.00">AuthService</text>
</g>
<!-- AuthService&#45;&gt;AuthModule -->
<g id="edge3" class="edge">
<title>AuthService&#45;&gt;AuthModule</title>
<path fill="none" stroke="black" d="M824,-122.28C824,-143.32 824,-175 824,-175 824,-175 545.74,-175 545.74,-175"/>
<polygon fill="black" stroke="black" points="545.74,-171.5 535.74,-175 545.74,-178.5 545.74,-171.5"/>
</g>
<!-- BcryptService -->
<g id="node5" class="node">
<title>BcryptService</title>
<ellipse fill="#fdb462" stroke="black" cx="680" cy="-104" rx="66.05" ry="18"/>
<text text-anchor="middle" x="680" y="-99.8" font-family="Times,serif" font-size="14.00">BcryptService</text>
</g>
<!-- BcryptService&#45;&gt;AuthModule -->
<g id="edge4" class="edge">
<title>BcryptService&#45;&gt;AuthModule</title>
<path fill="none" stroke="black" d="M680,-122.02C680,-139.37 680,-163 680,-163 680,-163 545.6,-163 545.6,-163"/>
<polygon fill="black" stroke="black" points="545.6,-159.5 535.6,-163 545.6,-166.5 545.6,-159.5"/>
</g>
<!-- GenerateTokensService -->
<g id="node6" class="node">
<title>GenerateTokensService</title>
<ellipse fill="#fdb462" stroke="black" cx="492" cy="-104" rx="103.03" ry="18"/>
<text text-anchor="middle" x="492" y="-99.8" font-family="Times,serif" font-size="14.00">GenerateTokensService</text>
</g>
<!-- GenerateTokensService&#45;&gt;AuthModule -->
<g id="edge5" class="edge">
<title>GenerateTokensService&#45;&gt;AuthModule</title>
<path fill="none" stroke="black" d="M492,-122.11C492,-122.11 492,-140.99 492,-140.99"/>
<polygon fill="black" stroke="black" points="488.5,-140.99 492,-150.99 495.5,-140.99 488.5,-140.99"/>
</g>
<!-- RefreshTokensService -->
<g id="node7" class="node">
<title>RefreshTokensService</title>
<ellipse fill="#fdb462" stroke="black" cx="272" cy="-104" rx="98.39" ry="18"/>
<text text-anchor="middle" x="272" y="-99.8" font-family="Times,serif" font-size="14.00">RefreshTokensService</text>
</g>
<!-- RefreshTokensService&#45;&gt;AuthModule -->
<g id="edge6" class="edge">
<title>RefreshTokensService&#45;&gt;AuthModule</title>
<path fill="none" stroke="black" d="M272,-122.02C272,-139.37 272,-163 272,-163 272,-163 438.27,-163 438.27,-163"/>
<polygon fill="black" stroke="black" points="438.27,-166.5 448.27,-163 438.27,-159.5 438.27,-166.5"/>
</g>
<!-- SignInService -->
<g id="node8" class="node">
<title>SignInService</title>
<ellipse fill="#fdb462" stroke="black" cx="90" cy="-104" rx="65.99" ry="18"/>
<text text-anchor="middle" x="90" y="-99.8" font-family="Times,serif" font-size="14.00">SignInService</text>
</g>
<!-- SignInService&#45;&gt;AuthModule -->
<g id="edge7" class="edge">
<title>SignInService&#45;&gt;AuthModule</title>
<path fill="none" stroke="black" d="M90,-122.28C90,-143.32 90,-175 90,-175 90,-175 438.21,-175 438.21,-175"/>
<polygon fill="black" stroke="black" points="438.21,-178.5 448.21,-175 438.21,-171.5 438.21,-178.5"/>
</g>
</g>
</svg>
