<?xml version="1.0" encoding="UTF-8" standalone="no"?>
<!DOCTYPE svg PUBLIC "-//W3C//DTD SVG 1.1//EN"
 "http://www.w3.org/Graphics/SVG/1.1/DTD/svg11.dtd">
<!-- Generated by graphviz version 2.47.0 (20210316.0004)
 -->
<!-- Title: dependencies Pages: 1 -->
<svg width="831pt" height="211pt"
 viewBox="0.00 0.00 831.00 211.00" xmlns="http://www.w3.org/2000/svg" xmlns:xlink="http://www.w3.org/1999/xlink">
<g id="graph0" class="graph" transform="scale(1 1) rotate(0) translate(4 207)">
<title>dependencies</title>
<polygon fill="white" stroke="transparent" points="-4,4 -4,-207 827,-207 827,4 -4,4"/>
<text text-anchor="start" x="390.51" y="-42.4" font-family="Times-12" font-weight="bold" font-size="14.00">Legend</text>
<polygon fill="#ffffb3" stroke="transparent" points="177.5,-10 177.5,-30 197.5,-30 197.5,-10 177.5,-10"/>
<text text-anchor="start" x="201.13" y="-15.4" font-family="Times-12" font-size="14.00"> &#160;Declarations</text>
<polygon fill="#8dd3c7" stroke="transparent" points="290.5,-10 290.5,-30 310.5,-30 310.5,-10 290.5,-10"/>
<text text-anchor="start" x="314.23" y="-15.4" font-family="Times-12" font-size="14.00"> &#160;Module</text>
<polygon fill="#80b1d3" stroke="transparent" points="376.5,-10 376.5,-30 396.5,-30 396.5,-10 376.5,-10"/>
<text text-anchor="start" x="400.28" y="-15.4" font-family="Times-12" font-size="14.00"> &#160;Bootstrap</text>
<polygon fill="#fdb462" stroke="transparent" points="473.5,-10 473.5,-30 493.5,-30 493.5,-10 473.5,-10"/>
<text text-anchor="start" x="497.17" y="-15.4" font-family="Times-12" font-size="14.00"> &#160;Providers</text>
<polygon fill="#fb8072" stroke="transparent" points="569.5,-10 569.5,-30 589.5,-30 589.5,-10 569.5,-10"/>
<text text-anchor="start" x="593.23" y="-15.4" font-family="Times-12" font-size="14.00"> &#160;Exports</text>
<g id="clust1" class="cluster">
<title>cluster_ExperiencesModule</title>
<polygon fill="none" stroke="black" stroke-dasharray="1,5" points="8,-70 8,-195 815,-195 815,-70 8,-70"/>
</g>
<g id="clust3" class="cluster">
<title>cluster_ExperiencesModule_imports</title>
<polygon fill="none" stroke="black" points="457,-78 457,-130 807,-130 807,-78 457,-78"/>
</g>
<g id="clust6" class="cluster">
<title>cluster_ExperiencesModule_providers</title>
<polygon fill="none" stroke="black" points="16,-78 16,-130 449,-130 449,-78 16,-78"/>
</g>
<!-- PaginationModule -->
<g id="node1" class="node">
<title>PaginationModule</title>
<polygon fill="#8dd3c7" stroke="black" points="798.93,-122 795.93,-126 774.93,-126 771.93,-122 679.07,-122 679.07,-86 798.93,-86 798.93,-122"/>
<text text-anchor="middle" x="739" y="-99.8" font-family="Times,serif" font-size="14.00">PaginationModule</text>
</g>
<!-- ExperiencesModule -->
<g id="node4" class="node">
<title>ExperiencesModule</title>
<polygon fill="#8dd3c7" stroke="black" points="574.96,-187 571.96,-191 550.96,-191 547.96,-187 447.04,-187 447.04,-151 574.96,-151 574.96,-187"/>
<text text-anchor="middle" x="511" y="-164.8" font-family="Times,serif" font-size="14.00">ExperiencesModule</text>
</g>
<!-- PaginationModule&#45;&gt;ExperiencesModule -->
<g id="edge1" class="edge">
<title>PaginationModule&#45;&gt;ExperiencesModule</title>
<path fill="none" stroke="black" d="M739,-122.11C739,-141.34 739,-169 739,-169 739,-169 585.12,-169 585.12,-169"/>
<polygon fill="black" stroke="black" points="585.12,-165.5 575.12,-169 585.12,-172.5 585.12,-165.5"/>
</g>
<!-- TagsModule -->
<g id="node2" class="node">
<title>TagsModule</title>
<polygon fill="#8dd3c7" stroke="black" points="661.26,-122 658.26,-126 637.26,-126 634.26,-122 574.74,-122 574.74,-86 661.26,-86 661.26,-122"/>
<text text-anchor="middle" x="618" y="-99.8" font-family="Times,serif" font-size="14.00">TagsModule</text>
</g>
<!-- TagsModule&#45;&gt;ExperiencesModule -->
<g id="edge2" class="edge">
<title>TagsModule&#45;&gt;ExperiencesModule</title>
<path fill="none" stroke="black" d="M574.31,-104C569.14,-104 565.66,-104 565.66,-104 565.66,-104 565.66,-140.89 565.66,-140.89"/>
<polygon fill="black" stroke="black" points="562.16,-140.89 565.66,-150.89 569.16,-140.89 562.16,-140.89"/>
</g>
<!-- UsersModule -->
<g id="node3" class="node">
<title>UsersModule</title>
<polygon fill="#8dd3c7" stroke="black" points="556.92,-122 553.92,-126 532.92,-126 529.92,-122 465.08,-122 465.08,-86 556.92,-86 556.92,-122"/>
<text text-anchor="middle" x="511" y="-99.8" font-family="Times,serif" font-size="14.00">UsersModule</text>
</g>
<!-- UsersModule&#45;&gt;ExperiencesModule -->
<g id="edge3" class="edge">
<title>UsersModule&#45;&gt;ExperiencesModule</title>
<path fill="none" stroke="black" d="M511,-122.11C511,-122.11 511,-140.99 511,-140.99"/>
<polygon fill="black" stroke="black" points="507.5,-140.99 511,-150.99 514.5,-140.99 507.5,-140.99"/>
</g>
<!-- CreateExperiencesService -->
<g id="node5" class="node">
<title>CreateExperiencesService</title>
<ellipse fill="#fdb462" stroke="black" cx="329" cy="-104" rx="112.25" ry="18"/>
<text text-anchor="middle" x="329" y="-99.8" font-family="Times,serif" font-size="14.00">CreateExperiencesService</text>
</g>
<!-- CreateExperiencesService&#45;&gt;ExperiencesModule -->
<g id="edge4" class="edge">
<title>CreateExperiencesService&#45;&gt;ExperiencesModule</title>
<path fill="none" stroke="black" d="M441.57,-104C450.5,-104 456.16,-104 456.16,-104 456.16,-104 456.16,-140.89 456.16,-140.89"/>
<polygon fill="black" stroke="black" points="452.66,-140.89 456.16,-150.89 459.66,-140.89 452.66,-140.89"/>
</g>
<!-- ExperiencesService -->
<g id="node6" class="node">
<title>ExperiencesService</title>
<ellipse fill="#fdb462" stroke="black" cx="111" cy="-104" rx="87.36" ry="18"/>
<text text-anchor="middle" x="111" y="-99.8" font-family="Times,serif" font-size="14.00">ExperiencesService</text>
</g>
<!-- ExperiencesService&#45;&gt;ExperiencesModule -->
<g id="edge5" class="edge">
<title>ExperiencesService&#45;&gt;ExperiencesModule</title>
<path fill="none" stroke="black" d="M111,-122.11C111,-141.34 111,-169 111,-169 111,-169 436.73,-169 436.73,-169"/>
<polygon fill="black" stroke="black" points="436.73,-172.5 446.73,-169 436.73,-165.5 436.73,-172.5"/>
</g>
</g>
</svg>
