<?xml version="1.0" encoding="UTF-8" standalone="no"?>
<!DOCTYPE svg PUBLIC "-//W3C//DTD SVG 1.1//EN"
 "http://www.w3.org/Graphics/SVG/1.1/DTD/svg11.dtd">
<!-- Generated by graphviz version 2.47.0 (20210316.0004)
 -->
<!-- Title: dependencies Pages: 1 -->
<svg width="1099pt" height="211pt"
 viewBox="0.00 0.00 1099.00 211.00" xmlns="http://www.w3.org/2000/svg" xmlns:xlink="http://www.w3.org/1999/xlink">
<g id="graph0" class="graph" transform="scale(1 1) rotate(0) translate(4 207)">
<title>dependencies</title>
<polygon fill="white" stroke="transparent" points="-4,4 -4,-207 1095,-207 1095,4 -4,4"/>
<text text-anchor="start" x="524.51" y="-42.4" font-family="Times-12" font-weight="bold" font-size="14.00">Legend</text>
<polygon fill="#ffffb3" stroke="transparent" points="311.5,-10 311.5,-30 331.5,-30 331.5,-10 311.5,-10"/>
<text text-anchor="start" x="335.13" y="-15.4" font-family="Times-12" font-size="14.00"> &#160;Declarations</text>
<polygon fill="#8dd3c7" stroke="transparent" points="424.5,-10 424.5,-30 444.5,-30 444.5,-10 424.5,-10"/>
<text text-anchor="start" x="448.23" y="-15.4" font-family="Times-12" font-size="14.00"> &#160;Module</text>
<polygon fill="#80b1d3" stroke="transparent" points="510.5,-10 510.5,-30 530.5,-30 530.5,-10 510.5,-10"/>
<text text-anchor="start" x="534.28" y="-15.4" font-family="Times-12" font-size="14.00"> &#160;Bootstrap</text>
<polygon fill="#fdb462" stroke="transparent" points="607.5,-10 607.5,-30 627.5,-30 627.5,-10 607.5,-10"/>
<text text-anchor="start" x="631.17" y="-15.4" font-family="Times-12" font-size="14.00"> &#160;Providers</text>
<polygon fill="#fb8072" stroke="transparent" points="703.5,-10 703.5,-30 723.5,-30 723.5,-10 703.5,-10"/>
<text text-anchor="start" x="727.23" y="-15.4" font-family="Times-12" font-size="14.00"> &#160;Exports</text>
<g id="clust1" class="cluster">
<title>cluster_AppModule</title>
<polygon fill="none" stroke="black" stroke-dasharray="1,5" points="8,-70 8,-195 1083,-195 1083,-70 8,-70"/>
</g>
<g id="clust3" class="cluster">
<title>cluster_AppModule_imports</title>
<polygon fill="none" stroke="black" points="258,-78 258,-130 1075,-130 1075,-78 258,-78"/>
</g>
<g id="clust6" class="cluster">
<title>cluster_AppModule_providers</title>
<polygon fill="none" stroke="black" points="16,-78 16,-130 250,-130 250,-78 16,-78"/>
</g>
<!-- AuthModule -->
<g id="node1" class="node">
<title>AuthModule</title>
<polygon fill="#8dd3c7" stroke="black" points="1066.55,-122 1063.55,-126 1042.55,-126 1039.55,-122 979.45,-122 979.45,-86 1066.55,-86 1066.55,-122"/>
<text text-anchor="middle" x="1023" y="-99.8" font-family="Times,serif" font-size="14.00">AuthModule</text>
</g>
<!-- AppModule -->
<g id="node8" class="node">
<title>AppModule</title>
<polygon fill="#8dd3c7" stroke="black" points="630.66,-187 627.66,-191 606.66,-191 603.66,-187 547.34,-187 547.34,-151 630.66,-151 630.66,-187"/>
<text text-anchor="middle" x="589" y="-164.8" font-family="Times,serif" font-size="14.00">AppModule</text>
</g>
<!-- AuthModule&#45;&gt;AppModule -->
<g id="edge1" class="edge">
<title>AuthModule&#45;&gt;AppModule</title>
<path fill="none" stroke="black" d="M1023,-122.29C1023,-144.21 1023,-178 1023,-178 1023,-178 641.01,-178 641.01,-178"/>
<polygon fill="black" stroke="black" points="641.01,-174.5 631.01,-178 641.01,-181.5 641.01,-174.5"/>
</g>
<!-- ContactsModule -->
<g id="node2" class="node">
<title>ContactsModule</title>
<polygon fill="#8dd3c7" stroke="black" points="961.04,-122 958.04,-126 937.04,-126 934.04,-122 852.96,-122 852.96,-86 961.04,-86 961.04,-122"/>
<text text-anchor="middle" x="907" y="-99.8" font-family="Times,serif" font-size="14.00">ContactsModule</text>
</g>
<!-- ContactsModule&#45;&gt;AppModule -->
<g id="edge2" class="edge">
<title>ContactsModule&#45;&gt;AppModule</title>
<path fill="none" stroke="black" d="M907,-122.11C907,-141.34 907,-169 907,-169 907,-169 640.9,-169 640.9,-169"/>
<polygon fill="black" stroke="black" points="640.9,-165.5 630.9,-169 640.9,-172.5 640.9,-165.5"/>
</g>
<!-- ExperiencesModule -->
<g id="node3" class="node">
<title>ExperiencesModule</title>
<polygon fill="#8dd3c7" stroke="black" points="834.96,-122 831.96,-126 810.96,-126 807.96,-122 707.04,-122 707.04,-86 834.96,-86 834.96,-122"/>
<text text-anchor="middle" x="771" y="-99.8" font-family="Times,serif" font-size="14.00">ExperiencesModule</text>
</g>
<!-- ExperiencesModule&#45;&gt;AppModule -->
<g id="edge3" class="edge">
<title>ExperiencesModule&#45;&gt;AppModule</title>
<path fill="none" stroke="black" d="M771,-122.03C771,-138.4 771,-160 771,-160 771,-160 640.75,-160 640.75,-160"/>
<polygon fill="black" stroke="black" points="640.75,-156.5 630.75,-160 640.75,-163.5 640.75,-156.5"/>
</g>
<!-- MailModule -->
<g id="node4" class="node">
<title>MailModule</title>
<polygon fill="#8dd3c7" stroke="black" points="688.99,-122 685.99,-126 664.99,-126 661.99,-122 603.01,-122 603.01,-86 688.99,-86 688.99,-122"/>
<text text-anchor="middle" x="646" y="-99.8" font-family="Times,serif" font-size="14.00">MailModule</text>
</g>
<!-- MailModule&#45;&gt;AppModule -->
<g id="edge4" class="edge">
<title>MailModule&#45;&gt;AppModule</title>
<path fill="none" stroke="black" d="M616.92,-122.11C616.92,-122.11 616.92,-140.99 616.92,-140.99"/>
<polygon fill="black" stroke="black" points="613.42,-140.99 616.92,-150.99 620.42,-140.99 613.42,-140.99"/>
</g>
<!-- ProjectsModule -->
<g id="node5" class="node">
<title>ProjectsModule</title>
<polygon fill="#8dd3c7" stroke="black" points="585.15,-122 582.15,-126 561.15,-126 558.15,-122 480.85,-122 480.85,-86 585.15,-86 585.15,-122"/>
<text text-anchor="middle" x="533" y="-99.8" font-family="Times,serif" font-size="14.00">ProjectsModule</text>
</g>
<!-- ProjectsModule&#45;&gt;AppModule -->
<g id="edge5" class="edge">
<title>ProjectsModule&#45;&gt;AppModule</title>
<path fill="none" stroke="black" d="M566.25,-122.11C566.25,-122.11 566.25,-140.99 566.25,-140.99"/>
<polygon fill="black" stroke="black" points="562.75,-140.99 566.25,-150.99 569.75,-140.99 562.75,-140.99"/>
</g>
<!-- TagsModule -->
<g id="node6" class="node">
<title>TagsModule</title>
<polygon fill="#8dd3c7" stroke="black" points="462.26,-122 459.26,-126 438.26,-126 435.26,-122 375.74,-122 375.74,-86 462.26,-86 462.26,-122"/>
<text text-anchor="middle" x="419" y="-99.8" font-family="Times,serif" font-size="14.00">TagsModule</text>
</g>
<!-- TagsModule&#45;&gt;AppModule -->
<g id="edge6" class="edge">
<title>TagsModule&#45;&gt;AppModule</title>
<path fill="none" stroke="black" d="M419,-122.03C419,-138.4 419,-160 419,-160 419,-160 536.98,-160 536.98,-160"/>
<polygon fill="black" stroke="black" points="536.98,-163.5 546.98,-160 536.98,-156.5 536.98,-163.5"/>
</g>
<!-- UsersModule -->
<g id="node7" class="node">
<title>UsersModule</title>
<polygon fill="#8dd3c7" stroke="black" points="357.92,-122 354.92,-126 333.92,-126 330.92,-122 266.08,-122 266.08,-86 357.92,-86 357.92,-122"/>
<text text-anchor="middle" x="312" y="-99.8" font-family="Times,serif" font-size="14.00">UsersModule</text>
</g>
<!-- UsersModule&#45;&gt;AppModule -->
<g id="edge7" class="edge">
<title>UsersModule&#45;&gt;AppModule</title>
<path fill="none" stroke="black" d="M312,-122.11C312,-141.34 312,-169 312,-169 312,-169 537.23,-169 537.23,-169"/>
<polygon fill="black" stroke="black" points="537.23,-172.5 547.23,-169 537.23,-165.5 537.23,-172.5"/>
</g>
<!-- DataResponseInterceptor -->
<g id="node9" class="node">
<title>DataResponseInterceptor</title>
<ellipse fill="#fdb462" stroke="black" cx="133" cy="-104" rx="108.77" ry="18"/>
<text text-anchor="middle" x="133" y="-99.8" font-family="Times,serif" font-size="14.00">DataResponseInterceptor</text>
</g>
<!-- DataResponseInterceptor&#45;&gt;AppModule -->
<g id="edge8" class="edge">
<title>DataResponseInterceptor&#45;&gt;AppModule</title>
<path fill="none" stroke="black" d="M133,-122.29C133,-144.21 133,-178 133,-178 133,-178 537.32,-178 537.32,-178"/>
<polygon fill="black" stroke="black" points="537.32,-181.5 547.32,-178 537.32,-174.5 537.32,-181.5"/>
</g>
</g>
</svg>
