<?xml version="1.0" encoding="UTF-8" standalone="no"?>
<!DOCTYPE svg PUBLIC "-//W3C//DTD SVG 1.1//EN"
 "http://www.w3.org/Graphics/SVG/1.1/DTD/svg11.dtd">
<!-- Generated by graphviz version 2.47.0 (20210316.0004)
 -->
<!-- Title: dependencies Pages: 1 -->
<svg width="766pt" height="211pt"
 viewBox="0.00 0.00 766.00 211.00" xmlns="http://www.w3.org/2000/svg" xmlns:xlink="http://www.w3.org/1999/xlink">
<g id="graph0" class="graph" transform="scale(1 1) rotate(0) translate(4 207)">
<title>dependencies</title>
<polygon fill="white" stroke="transparent" points="-4,4 -4,-207 762,-207 762,4 -4,4"/>
<text text-anchor="start" x="358.01" y="-42.4" font-family="Times-12" font-weight="bold" font-size="14.00">Legend</text>
<polygon fill="#ffffb3" stroke="transparent" points="145,-10 145,-30 165,-30 165,-10 145,-10"/>
<text text-anchor="start" x="168.63" y="-15.4" font-family="Times-12" font-size="14.00"> &#160;Declarations</text>
<polygon fill="#8dd3c7" stroke="transparent" points="258,-10 258,-30 278,-30 278,-10 258,-10"/>
<text text-anchor="start" x="281.73" y="-15.4" font-family="Times-12" font-size="14.00"> &#160;Module</text>
<polygon fill="#80b1d3" stroke="transparent" points="344,-10 344,-30 364,-30 364,-10 344,-10"/>
<text text-anchor="start" x="367.78" y="-15.4" font-family="Times-12" font-size="14.00"> &#160;Bootstrap</text>
<polygon fill="#fdb462" stroke="transparent" points="441,-10 441,-30 461,-30 461,-10 441,-10"/>
<text text-anchor="start" x="464.67" y="-15.4" font-family="Times-12" font-size="14.00"> &#160;Providers</text>
<polygon fill="#fb8072" stroke="transparent" points="537,-10 537,-30 557,-30 557,-10 537,-10"/>
<text text-anchor="start" x="560.73" y="-15.4" font-family="Times-12" font-size="14.00"> &#160;Exports</text>
<g id="clust1" class="cluster">
<title>cluster_ProjectsModule</title>
<polygon fill="none" stroke="black" stroke-dasharray="1,5" points="8,-70 8,-195 750,-195 750,-70 8,-70"/>
</g>
<g id="clust3" class="cluster">
<title>cluster_ProjectsModule_imports</title>
<polygon fill="none" stroke="black" points="392,-78 392,-130 742,-130 742,-78 392,-78"/>
</g>
<g id="clust6" class="cluster">
<title>cluster_ProjectsModule_providers</title>
<polygon fill="none" stroke="black" points="16,-78 16,-130 384,-130 384,-78 16,-78"/>
</g>
<!-- PaginationModule -->
<g id="node1" class="node">
<title>PaginationModule</title>
<polygon fill="#8dd3c7" stroke="black" points="733.93,-122 730.93,-126 709.93,-126 706.93,-122 614.07,-122 614.07,-86 733.93,-86 733.93,-122"/>
<text text-anchor="middle" x="674" y="-99.8" font-family="Times,serif" font-size="14.00">PaginationModule</text>
</g>
<!-- ProjectsModule -->
<g id="node4" class="node">
<title>ProjectsModule</title>
<polygon fill="#8dd3c7" stroke="black" points="498.15,-187 495.15,-191 474.15,-191 471.15,-187 393.85,-187 393.85,-151 498.15,-151 498.15,-187"/>
<text text-anchor="middle" x="446" y="-164.8" font-family="Times,serif" font-size="14.00">ProjectsModule</text>
</g>
<!-- PaginationModule&#45;&gt;ProjectsModule -->
<g id="edge1" class="edge">
<title>PaginationModule&#45;&gt;ProjectsModule</title>
<path fill="none" stroke="black" d="M674,-122.28C674,-143.32 674,-175 674,-175 674,-175 508.31,-175 508.31,-175"/>
<polygon fill="black" stroke="black" points="508.31,-171.5 498.31,-175 508.31,-178.5 508.31,-171.5"/>
</g>
<!-- TagsModule -->
<g id="node2" class="node">
<title>TagsModule</title>
<polygon fill="#8dd3c7" stroke="black" points="596.26,-122 593.26,-126 572.26,-126 569.26,-122 509.74,-122 509.74,-86 596.26,-86 596.26,-122"/>
<text text-anchor="middle" x="553" y="-99.8" font-family="Times,serif" font-size="14.00">TagsModule</text>
</g>
<!-- TagsModule&#45;&gt;ProjectsModule -->
<g id="edge2" class="edge">
<title>TagsModule&#45;&gt;ProjectsModule</title>
<path fill="none" stroke="black" d="M553,-122.02C553,-139.37 553,-163 553,-163 553,-163 508.25,-163 508.25,-163"/>
<polygon fill="black" stroke="black" points="508.25,-159.5 498.25,-163 508.25,-166.5 508.25,-159.5"/>
</g>
<!-- UsersModule -->
<g id="node3" class="node">
<title>UsersModule</title>
<polygon fill="#8dd3c7" stroke="black" points="491.92,-122 488.92,-126 467.92,-126 464.92,-122 400.08,-122 400.08,-86 491.92,-86 491.92,-122"/>
<text text-anchor="middle" x="446" y="-99.8" font-family="Times,serif" font-size="14.00">UsersModule</text>
</g>
<!-- UsersModule&#45;&gt;ProjectsModule -->
<g id="edge3" class="edge">
<title>UsersModule&#45;&gt;ProjectsModule</title>
<path fill="none" stroke="black" d="M446,-122.11C446,-122.11 446,-140.99 446,-140.99"/>
<polygon fill="black" stroke="black" points="442.5,-140.99 446,-150.99 449.5,-140.99 442.5,-140.99"/>
</g>
<!-- CreateProjectsService -->
<g id="node5" class="node">
<title>CreateProjectsService</title>
<ellipse fill="#fdb462" stroke="black" cx="280" cy="-104" rx="96.1" ry="18"/>
<text text-anchor="middle" x="280" y="-99.8" font-family="Times,serif" font-size="14.00">CreateProjectsService</text>
</g>
<!-- CreateProjectsService&#45;&gt;ProjectsModule -->
<g id="edge4" class="edge">
<title>CreateProjectsService&#45;&gt;ProjectsModule</title>
<path fill="none" stroke="black" d="M280,-122.02C280,-139.37 280,-163 280,-163 280,-163 383.48,-163 383.48,-163"/>
<polygon fill="black" stroke="black" points="383.48,-166.5 393.48,-163 383.48,-159.5 383.48,-166.5"/>
</g>
<!-- ProjectsService -->
<g id="node6" class="node">
<title>ProjectsService</title>
<ellipse fill="#fdb462" stroke="black" cx="95" cy="-104" rx="71.2" ry="18"/>
<text text-anchor="middle" x="95" y="-99.8" font-family="Times,serif" font-size="14.00">ProjectsService</text>
</g>
<!-- ProjectsService&#45;&gt;ProjectsModule -->
<g id="edge5" class="edge">
<title>ProjectsService&#45;&gt;ProjectsModule</title>
<path fill="none" stroke="black" d="M95,-122.28C95,-143.32 95,-175 95,-175 95,-175 383.83,-175 383.83,-175"/>
<polygon fill="black" stroke="black" points="383.83,-178.5 393.83,-175 383.83,-171.5 383.83,-178.5"/>
</g>
</g>
</svg>
