<?xml version="1.0" encoding="UTF-8" standalone="no"?>
<!DOCTYPE svg PUBLIC "-//W3C//DTD SVG 1.1//EN"
 "http://www.w3.org/Graphics/SVG/1.1/DTD/svg11.dtd">
<!-- Generated by graphviz version 2.47.0 (20210316.0004)
 -->
<!-- Title: dependencies Pages: 1 -->
<svg width="778pt" height="211pt"
 viewBox="0.00 0.00 778.00 211.00" xmlns="http://www.w3.org/2000/svg" xmlns:xlink="http://www.w3.org/1999/xlink">
<g id="graph0" class="graph" transform="scale(1 1) rotate(0) translate(4 207)">
<title>dependencies</title>
<polygon fill="white" stroke="transparent" points="-4,4 -4,-207 774,-207 774,4 -4,4"/>
<text text-anchor="start" x="364.01" y="-42.4" font-family="Times-12" font-weight="bold" font-size="14.00">Legend</text>
<polygon fill="#ffffb3" stroke="transparent" points="151,-10 151,-30 171,-30 171,-10 151,-10"/>
<text text-anchor="start" x="174.63" y="-15.4" font-family="Times-12" font-size="14.00"> &#160;Declarations</text>
<polygon fill="#8dd3c7" stroke="transparent" points="264,-10 264,-30 284,-30 284,-10 264,-10"/>
<text text-anchor="start" x="287.73" y="-15.4" font-family="Times-12" font-size="14.00"> &#160;Module</text>
<polygon fill="#80b1d3" stroke="transparent" points="350,-10 350,-30 370,-30 370,-10 350,-10"/>
<text text-anchor="start" x="373.78" y="-15.4" font-family="Times-12" font-size="14.00"> &#160;Bootstrap</text>
<polygon fill="#fdb462" stroke="transparent" points="447,-10 447,-30 467,-30 467,-10 447,-10"/>
<text text-anchor="start" x="470.67" y="-15.4" font-family="Times-12" font-size="14.00"> &#160;Providers</text>
<polygon fill="#fb8072" stroke="transparent" points="543,-10 543,-30 563,-30 563,-10 543,-10"/>
<text text-anchor="start" x="566.73" y="-15.4" font-family="Times-12" font-size="14.00"> &#160;Exports</text>
<g id="clust1" class="cluster">
<title>cluster_ContactsModule</title>
<polygon fill="none" stroke="black" stroke-dasharray="1,5" points="8,-70 8,-195 762,-195 762,-70 8,-70"/>
</g>
<g id="clust6" class="cluster">
<title>cluster_ContactsModule_providers</title>
<polygon fill="none" stroke="black" points="374,-78 374,-130 754,-130 754,-78 374,-78"/>
</g>
<g id="clust3" class="cluster">
<title>cluster_ContactsModule_imports</title>
<polygon fill="none" stroke="black" points="16,-78 16,-130 366,-130 366,-78 16,-78"/>
</g>
<!-- PaginationModule -->
<g id="node1" class="node">
<title>PaginationModule</title>
<polygon fill="#8dd3c7" stroke="black" points="357.93,-122 354.93,-126 333.93,-126 330.93,-122 238.07,-122 238.07,-86 357.93,-86 357.93,-122"/>
<text text-anchor="middle" x="298" y="-99.8" font-family="Times,serif" font-size="14.00">PaginationModule</text>
</g>
<!-- ContactsModule -->
<g id="node4" class="node">
<title>ContactsModule</title>
<polygon fill="#8dd3c7" stroke="black" points="352.04,-187 349.04,-191 328.04,-191 325.04,-187 243.96,-187 243.96,-151 352.04,-151 352.04,-187"/>
<text text-anchor="middle" x="298" y="-164.8" font-family="Times,serif" font-size="14.00">ContactsModule</text>
</g>
<!-- PaginationModule&#45;&gt;ContactsModule -->
<g id="edge1" class="edge">
<title>PaginationModule&#45;&gt;ContactsModule</title>
<path fill="none" stroke="black" d="M298,-122.11C298,-122.11 298,-140.99 298,-140.99"/>
<polygon fill="black" stroke="black" points="294.5,-140.99 298,-150.99 301.5,-140.99 294.5,-140.99"/>
</g>
<!-- TagsModule -->
<g id="node2" class="node">
<title>TagsModule</title>
<polygon fill="#8dd3c7" stroke="black" points="220.26,-122 217.26,-126 196.26,-126 193.26,-122 133.74,-122 133.74,-86 220.26,-86 220.26,-122"/>
<text text-anchor="middle" x="177" y="-99.8" font-family="Times,serif" font-size="14.00">TagsModule</text>
</g>
<!-- TagsModule&#45;&gt;ContactsModule -->
<g id="edge2" class="edge">
<title>TagsModule&#45;&gt;ContactsModule</title>
<path fill="none" stroke="black" d="M177,-122.02C177,-139.37 177,-163 177,-163 177,-163 233.87,-163 233.87,-163"/>
<polygon fill="black" stroke="black" points="233.87,-166.5 243.87,-163 233.87,-159.5 233.87,-166.5"/>
</g>
<!-- UsersModule -->
<g id="node3" class="node">
<title>UsersModule</title>
<polygon fill="#8dd3c7" stroke="black" points="115.92,-122 112.92,-126 91.92,-126 88.92,-122 24.08,-122 24.08,-86 115.92,-86 115.92,-122"/>
<text text-anchor="middle" x="70" y="-99.8" font-family="Times,serif" font-size="14.00">UsersModule</text>
</g>
<!-- UsersModule&#45;&gt;ContactsModule -->
<g id="edge3" class="edge">
<title>UsersModule&#45;&gt;ContactsModule</title>
<path fill="none" stroke="black" d="M70,-122.28C70,-143.32 70,-175 70,-175 70,-175 233.68,-175 233.68,-175"/>
<polygon fill="black" stroke="black" points="233.68,-178.5 243.68,-175 233.68,-171.5 233.68,-178.5"/>
</g>
<!-- ContactsService -->
<g id="node5" class="node">
<title>ContactsService</title>
<ellipse fill="#fdb462" stroke="black" cx="672" cy="-104" rx="73.57" ry="18"/>
<text text-anchor="middle" x="672" y="-99.8" font-family="Times,serif" font-size="14.00">ContactsService</text>
</g>
<!-- ContactsService&#45;&gt;ContactsModule -->
<g id="edge4" class="edge">
<title>ContactsService&#45;&gt;ContactsModule</title>
<path fill="none" stroke="black" d="M672,-122.28C672,-143.32 672,-175 672,-175 672,-175 362.38,-175 362.38,-175"/>
<polygon fill="black" stroke="black" points="362.38,-171.5 352.38,-175 362.38,-178.5 362.38,-171.5"/>
</g>
<!-- CreateContactsService -->
<g id="node6" class="node">
<title>CreateContactsService</title>
<ellipse fill="#fdb462" stroke="black" cx="481" cy="-104" rx="98.97" ry="18"/>
<text text-anchor="middle" x="481" y="-99.8" font-family="Times,serif" font-size="14.00">CreateContactsService</text>
</g>
<!-- CreateContactsService&#45;&gt;ContactsModule -->
<g id="edge5" class="edge">
<title>CreateContactsService&#45;&gt;ContactsModule</title>
<path fill="none" stroke="black" d="M481,-122.02C481,-139.37 481,-163 481,-163 481,-163 362.41,-163 362.41,-163"/>
<polygon fill="black" stroke="black" points="362.41,-159.5 352.41,-163 362.41,-166.5 362.41,-159.5"/>
</g>
</g>
</svg>
